# xmcd CD database file
#
# Track frame offsets:
#	150
#	3164
#	12342
#	21807
#	37016
#	47503
#	56858
#	66579
#	86216
#	98615
#	116727
#	134314
#	142524
#	150910
#	160783
#	171776
#	181370
#	188725
#	196625
#	207081
#	222282
#	233096
#	241703
#	253041
#	262676
#
# Disc length: 3779 seconds
#
# Revision: 0
# Processed by: cddbd v1.5.1PL0 Copyright (c) Steve Scherf et al.
# Submitted via: CDex 1.51
#
DISCID=400ec119
DTITLE=ベスト・キッズ・ソング - ベスト・キッズ・ソング
DYEAR=1900
DGENRE=National Folk
TTITLE0=ピタゴラスイッチ オープニング（inst）
TTITLE1=おしりフリフリ
TTITLE2=こねこねんね
TTITLE3=月光町のうた
TTITLE4=おすしのピクニック
TTITLE5=かっぱなにさま？かっぱさま！
TTITLE6=チキンダンス
TTITLE7=世界の約束（ハウルの動く城）
TTITLE8=さんぽ
TTITLE9=となりのトトロ
TTITLE10=いつも何度でも
TTITLE11=ビックリ・タマゲタ
TTITLE12=むしばけんせつかぶしきがいしゃ
TTITLE13=かけぶとん しきぶとん
TTITLE14=きつねのコンピューター
TTITLE15=バンジョーのジョー
TTITLE16=こうえんにいきましょう
TTITLE17=スッカラスカンク
TTITLE18=わくわくスーパーマーケット
TTITLE19=ひょっこりひょうたん島
TTITLE20=あめふりりんちゃん
TTITLE21=たこやきなんぼマンボ
TTITLE22=月夜のポンチャラリン
TTITLE23=とんでもトン吉
TTITLE24=世界に一つだけの花
EXTD=
EXTT0=
EXTT1=
EXTT2=
EXTT3=
EXTT4=
EXTT5=
EXTT6=
EXTT7=
EXTT8=
EXTT9=
EXTT10=
EXTT11=
EXTT12=
EXTT13=
EXTT14=
EXTT15=
EXTT16=
EXTT17=
EXTT18=
EXTT19=
EXTT20=
EXTT21=
EXTT22=
EXTT23=
EXTT24=
PLAYORDER=
